<svg width="100" height="100" viewBox="0 0 100 100" fill="none" xmlns="http://www.w3.org/2000/svg">
<path d="M85.4168 10.4165H14.5835L20.8335 81.2498L50.0002 89.5832L79.1668 81.2498L85.4168 10.4165Z" fill="#0277BD"/>
<path d="M50 16.6665V83.1248L73.3333 76.4582L78.5417 16.6665H50Z" fill="#039BE5"/>
<path d="M68.9583 27.0835H50V35.4168H60.2083L59.5833 43.7502H50V52.0835H59.1667L58.5417 61.4585L50 64.3752V73.1252L66.4583 67.7085L67.9167 43.7502L68.9583 27.0835Z" fill="white"/>
<path d="M50.0002 27.0835V35.4168H31.4585L30.8335 27.0835H50.0002ZM40.4168 43.7502L40.8335 52.0835H50.0002V43.7502H40.4168ZM41.2502 56.2502H32.9168L33.5418 67.7085L50.0002 73.1252V64.3752L41.4585 61.4585L41.2502 56.2502Z" fill="#EEEEEE"/>
</svg>
