<svg width="100" height="100" viewBox="0 0 100 100" fill="none" xmlns="http://www.w3.org/2000/svg">
<path d="M85.4168 10.4165H14.5835L20.8335 81.2498L50.0002 89.5832L79.1668 81.2498L85.4168 10.4165Z" fill="#E65100"/>
<path d="M85.4168 10.4165H14.5835L20.8335 81.2498L50.0002 89.5832L79.1668 81.2498L85.4168 10.4165Z" fill="#E65100"/>
<path d="M50 16.6665V83.1248L73.3333 76.4582L78.5417 16.6665H50Z" fill="#FF6D00"/>
<path d="M50 52.0835V43.7502H67.9167L66.4583 67.7085L50 73.1252V64.3752L58.5417 61.4585L59.1667 52.0835H50ZM68.5417 35.4168L69.1667 27.0835H50V35.4168H68.5417Z" fill="white"/>
<path d="M49.9998 64.3752V73.1252L33.5415 67.7085L32.7082 56.2502H41.0415L41.4582 61.4585L49.9998 64.3752ZM39.7915 35.4168H49.9998V27.0835H31.0415L32.4998 52.0835H49.9998V43.7502H40.4165L39.7915 35.4168Z" fill="#EEEEEE"/>
</svg>
