<svg width="2048" height="2048" viewBox="0 0 2048 2048" fill="none" xmlns="http://www.w3.org/2000/svg">
<path fill-rule="evenodd" clip-rule="evenodd" d="M1024 0C1589.54 0 2048 458.459 2048 1024C2048 1589.54 1589.54 2048 1024 2048C458.459 2048 0 1589.54 0 1024C0 458.459 458.459 0 1024 0Z" fill="#9F7AEA"/>
<path fill-rule="evenodd" clip-rule="evenodd" d="M484.811 1448.78H1563.19C1574.21 1448.78 1587.36 1438.02 1583.22 1426.89L1483.36 1158.23C1479.23 1147.1 1474.32 1136.34 1463.33 1136.34H584.673C573.681 1136.34 568.79 1147.08 564.644 1158.23L464.782 1426.89C460.636 1438.04 473.795 1448.78 484.811 1448.78V1448.78Z" fill="#999999"/>
<path fill-rule="evenodd" clip-rule="evenodd" d="M514.106 1356.04H1533.9L1447.46 1156.31H600.548L514.106 1356.04Z" fill="#B8B4B4"/>
<path fill-rule="evenodd" clip-rule="evenodd" d="M584.67 599.216H1463.33C1474.35 599.216 1483.36 609.082 1483.36 621.109V1114.45C1483.36 1126.48 1474.33 1136.34 1463.33 1136.34H584.67C573.667 1136.34 564.641 1126.49 564.641 1114.45V621.109C564.641 609.067 573.654 599.216 584.67 599.216V599.216Z" fill="#434A52"/>
<path fill-rule="evenodd" clip-rule="evenodd" d="M604.584 639.16V1096.4H1443.42V639.16H604.584Z" fill="#BBDEFB"/>
<path d="M651.493 1169.32H611.549L601.429 1209.26H641.373L651.493 1169.32Z" fill="#8A8A8A"/>
<path d="M712.144 1169.32H672.2L665.015 1209.26H704.959L712.144 1169.32Z" fill="#8A8A8A"/>
<path d="M772.796 1169.32H732.852L725.667 1209.26H765.611L772.796 1169.32Z" fill="#8A8A8A"/>
<path d="M833.447 1169.32H793.503L786.318 1209.26H826.262L833.447 1169.32Z" fill="#8A8A8A"/>
<path d="M886.913 1169.32H846.969V1209.26H886.913V1169.32Z" fill="#8A8A8A"/>
<path d="M940.38 1169.32H900.436V1209.26H940.38V1169.32Z" fill="#8A8A8A"/>
<path d="M993.847 1169.32H953.903V1209.26H993.847V1169.32Z" fill="#8A8A8A"/>
<path d="M1047.31 1169.32H1007.37V1209.26H1047.31V1169.32Z" fill="#8A8A8A"/>
<path d="M1100.78 1169.32H1060.84V1209.26H1100.78V1169.32Z" fill="#8A8A8A"/>
<path d="M1154.24 1169.32H1114.3V1209.26H1154.24V1169.32Z" fill="#8A8A8A"/>
<path d="M1207.71 1169.32H1167.77V1209.26H1207.71V1169.32Z" fill="#8A8A8A"/>
<path d="M1261.17 1169.32H1221.23V1209.26H1261.17V1169.32Z" fill="#8A8A8A"/>
<path d="M1375.15 1169.32H1335.21L1342.26 1209.26H1382.2L1375.15 1169.32Z" fill="#8A8A8A"/>
<path d="M1395.73 1169.32H1435.67L1445.79 1209.26H1405.85L1395.73 1169.32Z" fill="#8A8A8A"/>
<path d="M1314.64 1169.32H1274.7L1281.75 1209.26H1321.69L1314.64 1169.32Z" fill="#8A8A8A"/>
<path d="M651.493 1236.2H611.549L601.429 1276.14H641.373L651.493 1236.2Z" fill="#8A8A8A"/>
<path d="M712.144 1236.2H672.2L665.015 1276.14H704.959L712.144 1236.2Z" fill="#8A8A8A"/>
<path d="M772.796 1236.2H732.852L725.667 1276.14H765.611L772.796 1236.2Z" fill="#8A8A8A"/>
<path d="M833.447 1236.2H793.503L786.318 1276.14H826.262L833.447 1236.2Z" fill="#8A8A8A"/>
<path d="M886.913 1236.2H846.969V1276.14H886.913V1236.2Z" fill="#8A8A8A"/>
<path d="M940.38 1236.2H900.436V1276.14H940.38V1236.2Z" fill="#8A8A8A"/>
<path d="M993.847 1236.2H953.903V1276.14H993.847V1236.2Z" fill="#8A8A8A"/>
<path d="M1047.31 1236.2H1007.37V1276.14H1047.31V1236.2Z" fill="#8A8A8A"/>
<path d="M1100.78 1236.2H1060.84V1276.14H1100.78V1236.2Z" fill="#8A8A8A"/>
<path d="M1154.24 1236.2H1114.3V1276.14H1154.24V1236.2Z" fill="#8A8A8A"/>
<path d="M1207.71 1236.2H1167.77V1276.14H1207.71V1236.2Z" fill="#8A8A8A"/>
<path d="M1261.17 1236.2H1221.23V1276.14H1261.17V1236.2Z" fill="#8A8A8A"/>
<path d="M1375.15 1236.2H1335.21L1342.26 1276.14H1382.2L1375.15 1236.2Z" fill="#8A8A8A"/>
<path d="M1395.73 1236.2H1435.67L1445.79 1276.14H1405.85L1395.73 1236.2Z" fill="#8A8A8A"/>
<path d="M1314.64 1236.2H1274.7L1281.75 1276.14H1321.69L1314.64 1236.2Z" fill="#8A8A8A"/>
<path d="M651.493 1303.08H611.549L601.429 1343.02H641.373L651.493 1303.08Z" fill="#8A8A8A"/>
<path d="M712.144 1303.08H672.2L665.015 1343.02H704.959L712.144 1303.08Z" fill="#8A8A8A"/>
<path d="M772.796 1303.08H732.852L725.667 1343.02H765.611L772.796 1303.08Z" fill="#8A8A8A"/>
<path fill-rule="evenodd" clip-rule="evenodd" d="M1061.48 1303.08H1203.46H1254.53L1261.47 1343.03H1203.46H1061.48H786.53L793.794 1303.08H1061.48Z" fill="#8A8A8A"/>
<path d="M1375.15 1303.08H1335.21L1342.26 1343.02H1382.2L1375.15 1303.08Z" fill="#8A8A8A"/>
<path d="M1395.73 1303.08H1435.67L1445.79 1343.02H1405.85L1395.73 1303.08Z" fill="#8A8A8A"/>
<path d="M1314.64 1303.08H1274.7L1281.75 1343.02H1321.69L1314.64 1303.08Z" fill="#8A8A8A"/>
<path fill-rule="evenodd" clip-rule="evenodd" d="M1304.54 702.918C1303.15 702.918 1301.91 703.366 1300.81 704.249C1299.72 705.146 1298.87 706.744 1298.26 709.041C1297.48 712.027 1297.07 717.043 1297.07 724.105C1297.07 731.166 1297.44 736.015 1298.14 738.649C1298.85 741.298 1299.75 743.05 1300.83 743.932C1301.92 744.8 1303.15 745.249 1304.54 745.249C1305.94 745.249 1307.19 744.8 1308.28 743.904C1309.38 743.02 1310.23 741.423 1310.83 739.126C1312.45 733.03 1312.56 715.611 1310.96 709.545C1310.24 706.911 1309.35 705.146 1308.27 704.249C1307.18 703.366 1305.94 702.918 1304.54 702.918V702.918ZM1304.54 693.349C1310.38 693.349 1314.94 695.436 1318.22 699.598C1322.13 704.516 1324.09 712.685 1324.09 724.105C1324.09 735.482 1322.11 743.665 1318.17 748.654C1314.92 752.759 1310.38 754.805 1304.54 754.805C1298.7 754.805 1293.97 752.563 1290.39 748.052C1286.8 743.554 1285.01 735.525 1285.01 723.978C1285.01 712.642 1286.98 704.487 1290.92 699.513C1294.17 695.407 1298.71 693.349 1304.54 693.349H1304.54ZM1267.8 753.782H1256.27V710.302C1252.05 714.254 1247.09 717.168 1241.37 719.046V708.579C1244.37 707.598 1247.65 705.734 1251.18 702.988C1254.72 700.227 1257.14 697.018 1258.44 693.349H1267.8V753.782V753.782ZM1211.03 702.918C1209.64 702.918 1208.39 703.366 1207.3 704.249C1206.2 705.146 1205.35 706.744 1204.75 709.041C1203.96 712.027 1203.56 717.043 1203.56 724.105C1203.56 731.166 1203.92 736.015 1204.62 738.649C1205.34 741.298 1206.23 743.05 1207.31 743.932C1208.41 744.8 1209.64 745.249 1211.03 745.249C1212.43 745.249 1213.67 744.8 1214.77 743.904C1215.86 743.02 1216.71 741.423 1217.32 739.126C1218.1 736.168 1218.51 731.167 1218.51 724.105C1218.51 717.043 1218.14 712.194 1217.44 709.545C1216.73 706.911 1215.83 705.146 1214.75 704.249C1213.66 703.366 1212.43 702.918 1211.03 702.918V702.918ZM1211.03 693.349C1216.87 693.349 1221.42 695.436 1224.7 699.598C1228.61 704.516 1230.57 712.685 1230.57 724.105C1230.57 735.482 1228.6 743.665 1224.66 748.654C1221.41 752.759 1216.87 754.805 1211.02 754.805C1205.18 754.805 1200.46 752.563 1196.87 748.052C1193.29 743.554 1191.49 735.525 1191.49 723.978C1191.49 712.642 1193.47 704.487 1197.41 699.513C1200.66 695.407 1205.2 693.349 1211.02 693.349H1211.03ZM1174.29 753.782H1162.75V710.302C1158.54 714.254 1153.57 717.168 1147.86 719.046V708.579C1150.86 707.598 1154.14 705.734 1157.67 702.988C1161.2 700.227 1163.62 697.018 1164.93 693.349H1174.29V753.782L1174.29 753.782ZM1117.51 702.918C1116.12 702.918 1114.87 703.366 1113.78 704.249C1112.69 705.146 1111.83 706.744 1111.23 709.041C1110.45 712.027 1110.04 717.043 1110.04 724.105C1110.04 731.166 1110.4 736.015 1111.1 738.649C1111.82 741.298 1112.72 743.05 1113.8 743.932C1114.89 744.8 1116.12 745.249 1117.51 745.249C1118.91 745.249 1120.16 744.8 1121.25 743.904C1122.34 743.02 1123.2 741.423 1123.8 739.126C1124.58 736.168 1124.99 731.167 1124.99 724.105C1124.99 717.043 1124.63 712.194 1123.93 709.545C1123.21 706.911 1122.31 705.146 1121.24 704.249C1120.14 703.366 1118.91 702.918 1117.51 702.918V702.918ZM1117.51 693.349C1123.35 693.349 1127.91 695.436 1131.18 699.598C1135.09 704.516 1137.06 712.685 1137.06 724.105C1137.06 735.482 1135.08 743.665 1131.14 748.654C1127.89 752.759 1123.35 754.805 1117.51 754.805C1111.67 754.805 1106.94 752.563 1103.36 748.052C1099.77 743.554 1097.98 735.525 1097.98 723.978C1097.98 712.642 1099.95 704.487 1103.89 699.513C1107.14 695.407 1111.68 693.349 1117.51 693.349V693.349ZM1080.77 753.782H1069.24V710.302C1065.02 714.254 1060.06 717.168 1054.34 719.046V708.579C1057.34 707.598 1060.62 705.734 1064.15 702.988C1067.68 700.227 1070.11 697.018 1071.41 693.349H1080.77V753.782V753.782ZM1023.99 702.918C1022.6 702.918 1021.36 703.366 1020.27 704.249C1019.17 705.146 1018.32 706.744 1017.72 709.041C1016.93 712.027 1016.52 717.043 1016.52 724.105C1016.52 731.166 1016.89 736.015 1017.59 738.649C1018.3 741.298 1019.2 743.05 1020.28 743.932C1021.37 744.8 1022.6 745.249 1023.99 745.249C1025.39 745.249 1026.64 744.8 1027.73 743.904C1028.83 743.02 1029.68 741.423 1030.28 739.126C1031.07 736.168 1031.48 731.167 1031.48 724.105C1031.48 717.043 1031.11 712.194 1030.41 709.545C1029.69 706.911 1028.8 705.146 1027.72 704.249C1026.63 703.366 1025.39 702.918 1023.99 702.918V702.918ZM1023.99 693.349C1029.84 693.349 1034.39 695.436 1037.67 699.598C1041.58 704.516 1043.54 712.685 1043.54 724.105C1043.54 735.482 1041.56 743.665 1037.63 748.654C1034.38 752.759 1029.84 754.805 1023.99 754.805C1018.15 754.805 1013.43 752.563 1009.84 748.052C1006.25 743.554 1004.46 735.525 1004.46 723.978C1004.46 712.642 1006.44 704.487 1010.37 699.513C1013.62 695.407 1018.16 693.349 1023.99 693.349H1023.99ZM987.254 753.782H975.721V710.302C971.503 714.254 966.544 717.168 960.826 719.046V708.579C963.825 707.598 967.105 705.734 970.634 702.988C974.167 700.227 976.59 697.018 977.893 693.349H987.254V753.782L987.254 753.782ZM930.476 702.918C929.09 702.918 927.843 703.366 926.749 704.249C925.656 705.146 924.802 706.744 924.2 709.041C923.415 712.027 923.008 717.043 923.008 724.105C923.008 731.166 923.373 736.015 924.072 738.649C924.788 741.298 925.686 743.05 926.763 743.932C927.857 744.8 929.09 745.249 930.476 745.249C931.878 745.249 933.126 744.8 934.217 743.904C935.311 743.02 936.166 741.423 936.769 739.126C937.552 736.168 937.96 731.167 937.96 724.105C937.96 717.043 937.595 712.194 936.894 709.545C936.18 706.911 935.284 705.146 934.204 704.249C933.11 703.366 931.878 702.918 930.476 702.918V702.918ZM930.476 693.349C936.319 693.349 940.875 695.436 944.152 699.598C948.062 704.516 950.024 712.685 950.024 724.105C950.024 735.482 948.048 743.665 944.111 748.654C940.861 752.759 936.319 754.805 930.476 754.805C924.633 754.805 919.911 752.563 916.326 748.052C912.737 743.554 910.943 735.525 910.943 723.978C910.943 712.642 912.919 704.487 916.857 699.513C920.109 695.407 924.648 693.349 930.476 693.349V693.349ZM893.737 753.782H882.206V710.302C877.988 714.254 873.028 717.168 867.31 719.046V708.579C870.31 707.598 873.587 705.734 877.119 702.988C880.65 700.227 883.074 697.018 884.377 693.349H893.737V753.782V753.782ZM836.96 702.918C835.572 702.918 834.328 703.366 833.233 704.249C832.14 705.146 831.286 706.744 830.683 709.041C829.898 712.027 829.492 717.043 829.492 724.105C829.492 731.166 829.857 736.015 830.557 738.649C831.272 741.298 832.168 743.05 833.247 743.932C834.341 744.8 835.572 745.249 836.96 745.249C838.362 745.249 839.609 744.8 840.702 743.904C841.794 743.02 842.648 741.423 843.252 739.126C844.037 736.168 844.444 731.167 844.444 724.105C844.444 717.043 844.08 712.194 843.377 709.545C842.664 706.911 841.767 705.146 840.688 704.249C839.594 703.366 838.362 702.918 836.96 702.918V702.918ZM836.96 693.349C842.804 693.349 847.357 695.436 850.637 699.598C854.546 704.516 856.508 712.685 856.508 724.105C856.508 735.482 854.531 743.665 850.594 748.654C847.344 752.759 842.804 754.805 836.96 754.805C831.117 754.805 826.395 752.563 822.808 748.052C819.221 743.554 817.427 735.525 817.427 723.978C817.427 712.642 819.403 704.487 823.341 699.513C826.592 695.407 831.131 693.349 836.96 693.349H836.96ZM800.222 753.782H788.69V710.302C784.472 714.254 779.511 717.168 773.794 719.046V708.579C776.794 707.598 780.072 705.734 783.603 702.988C787.134 700.227 789.558 697.018 790.862 693.349H800.222V753.782V753.782ZM743.444 702.918C742.057 702.918 740.81 703.366 739.718 704.249C738.624 705.146 737.77 706.744 737.168 709.041C736.382 712.027 735.977 717.043 735.977 724.105C735.977 731.166 736.341 736.015 737.041 738.649C737.757 741.298 738.652 743.05 739.732 743.932C740.824 744.8 742.057 745.249 743.444 745.249C744.846 745.249 746.093 744.8 747.186 743.904C748.278 743.02 749.132 741.423 749.737 739.126C750.52 736.168 750.927 731.167 750.927 724.105C750.927 717.043 750.563 712.194 749.862 709.545C749.149 706.911 748.251 705.146 747.172 704.249C746.079 703.366 744.846 702.918 743.444 702.918V702.918ZM1304.54 798.719C1303.15 798.719 1301.91 799.169 1300.81 800.051C1299.72 800.947 1298.87 802.545 1298.26 804.843C1297.48 807.827 1297.07 812.843 1297.07 819.906C1297.07 826.968 1297.44 831.816 1298.14 834.451C1298.85 837.099 1299.75 838.85 1300.83 839.734C1301.92 840.601 1303.15 841.05 1304.54 841.05C1305.94 841.05 1307.19 840.6 1308.28 839.705C1309.38 838.823 1310.23 837.225 1310.83 834.926C1312.45 828.832 1312.56 811.413 1310.96 805.347C1310.24 802.713 1309.35 800.947 1308.27 800.051C1307.18 799.168 1305.94 798.719 1304.54 798.719V798.719ZM1304.54 789.149C1310.38 789.149 1314.94 791.237 1318.22 795.398C1322.13 800.317 1324.09 808.486 1324.09 819.906C1324.09 831.284 1322.11 839.467 1318.17 844.456C1314.92 848.56 1310.38 850.607 1304.54 850.607C1298.7 850.607 1293.97 848.365 1290.39 843.853C1286.8 839.356 1285.01 831.325 1285.01 819.78C1285.01 808.444 1286.98 800.288 1290.92 795.315C1294.17 791.209 1298.71 789.149 1304.54 789.149H1304.54ZM1267.8 849.584H1256.27V806.104C1252.05 810.056 1247.09 812.97 1241.37 814.848V804.381C1244.37 803.399 1247.65 801.535 1251.18 798.789C1254.72 796.029 1257.14 792.821 1258.44 789.149H1267.8V849.584V849.584ZM1211.03 798.719C1209.64 798.719 1208.39 799.169 1207.3 800.051C1206.2 800.947 1205.35 802.545 1204.75 804.843C1203.96 807.827 1203.56 812.843 1203.56 819.906C1203.56 826.968 1203.92 831.816 1204.62 834.451C1205.34 837.099 1206.23 838.85 1207.31 839.734C1208.41 840.601 1209.64 841.05 1211.03 841.05C1212.43 841.05 1213.67 840.6 1214.77 839.705C1215.86 838.823 1216.71 837.225 1217.32 834.926C1218.1 831.97 1218.51 826.968 1218.51 819.906C1218.51 812.843 1218.14 807.996 1217.44 805.347C1216.73 802.713 1215.83 800.947 1214.75 800.051C1213.66 799.168 1212.43 798.719 1211.03 798.719V798.719ZM1211.03 789.149C1216.87 789.149 1221.42 791.237 1224.7 795.398C1228.61 800.317 1230.57 808.486 1230.57 819.906C1230.57 831.284 1228.6 839.467 1224.66 844.456C1221.41 848.56 1216.87 850.607 1211.02 850.607C1205.18 850.607 1200.46 848.365 1196.87 843.853C1193.29 839.356 1191.49 831.325 1191.49 819.78C1191.49 808.444 1193.47 800.288 1197.41 795.315C1200.66 791.209 1205.2 789.149 1211.02 789.149H1211.03ZM1174.29 849.584H1162.75V806.104C1158.54 810.056 1153.57 812.97 1147.86 814.848V804.381C1150.86 803.399 1154.14 801.535 1157.67 798.789C1161.2 796.029 1163.62 792.821 1164.93 789.149H1174.29V849.584H1174.29ZM1117.51 798.719C1116.12 798.719 1114.87 799.169 1113.78 800.051C1112.69 800.947 1111.83 802.545 1111.23 804.843C1110.45 807.827 1110.04 812.843 1110.04 819.906C1110.04 826.968 1110.4 831.816 1111.1 834.451C1111.82 837.099 1112.72 838.85 1113.8 839.734C1114.89 840.601 1116.12 841.05 1117.51 841.05C1118.91 841.05 1120.16 840.6 1121.25 839.705C1122.34 838.823 1123.2 837.225 1123.8 834.926C1124.58 831.97 1124.99 826.968 1124.99 819.906C1124.99 812.843 1124.63 807.996 1123.93 805.347C1123.21 802.713 1122.31 800.947 1121.24 800.051C1120.14 799.168 1118.91 798.719 1117.51 798.719V798.719ZM1117.51 789.149C1123.35 789.149 1127.91 791.237 1131.18 795.398C1135.09 800.317 1137.06 808.486 1137.06 819.906C1137.06 831.284 1135.08 839.467 1131.14 844.456C1127.89 848.56 1123.35 850.607 1117.51 850.607C1111.67 850.607 1106.94 848.365 1103.36 843.853C1099.77 839.356 1097.98 831.325 1097.98 819.78C1097.98 808.444 1099.95 800.288 1103.89 795.315C1107.14 791.209 1111.68 789.149 1117.51 789.149V789.149ZM1080.77 849.584H1069.24V806.104C1065.02 810.056 1060.06 812.97 1054.34 814.848V804.381C1057.34 803.399 1060.62 801.535 1064.15 798.789C1067.68 796.029 1070.11 792.821 1071.41 789.149H1080.77V849.584V849.584ZM1023.99 798.719C1022.6 798.719 1021.36 799.169 1020.27 800.051C1019.17 800.947 1018.32 802.545 1017.72 804.843C1016.93 807.827 1016.52 812.843 1016.52 819.906C1016.52 826.968 1016.89 831.816 1017.59 834.451C1018.3 837.099 1019.2 838.85 1020.28 839.734C1021.37 840.601 1022.6 841.05 1023.99 841.05C1025.39 841.05 1026.64 840.6 1027.73 839.705C1028.83 838.823 1029.68 837.225 1030.28 834.926C1031.07 831.97 1031.48 826.968 1031.48 819.906C1031.48 812.843 1031.11 807.996 1030.41 805.347C1029.69 802.713 1028.8 800.947 1027.72 800.051C1026.63 799.168 1025.39 798.719 1023.99 798.719V798.719ZM1023.99 789.149C1029.84 789.149 1034.39 791.237 1037.67 795.398C1041.58 800.317 1043.54 808.486 1043.54 819.906C1043.54 831.284 1041.56 839.467 1037.63 844.456C1034.38 848.56 1029.84 850.607 1023.99 850.607C1018.15 850.607 1013.43 848.365 1009.84 843.853C1006.25 839.356 1004.46 831.325 1004.46 819.78C1004.46 808.444 1006.44 800.288 1010.37 795.315C1013.62 791.209 1018.16 789.149 1023.99 789.149H1023.99ZM987.254 849.584H975.721V806.104C971.503 810.056 966.544 812.97 960.826 814.848V804.381C963.825 803.399 967.105 801.535 970.634 798.789C974.167 796.029 976.59 792.821 977.893 789.149H987.254V849.584H987.254ZM930.476 798.719C929.09 798.719 927.843 799.169 926.749 800.051C925.656 800.947 924.802 802.545 924.2 804.843C923.415 807.827 923.008 812.843 923.008 819.906C923.008 826.968 923.373 831.816 924.072 834.451C924.788 837.099 925.686 838.85 926.763 839.734C927.857 840.601 929.09 841.05 930.476 841.05C931.878 841.05 933.126 840.6 934.217 839.705C935.311 838.823 936.166 837.225 936.769 834.926C937.552 831.97 937.96 826.968 937.96 819.906C937.96 812.843 937.595 807.996 936.894 805.347C936.18 802.713 935.284 800.947 934.204 800.051C933.11 799.168 931.878 798.719 930.476 798.719V798.719ZM930.476 789.149C936.319 789.149 940.875 791.237 944.152 795.398C948.062 800.317 950.024 808.486 950.024 819.906C950.024 831.284 948.048 839.467 944.111 844.456C940.861 848.56 936.319 850.607 930.476 850.607C924.633 850.607 919.911 848.365 916.326 843.853C912.737 839.356 910.943 831.325 910.943 819.78C910.943 808.444 912.919 800.288 916.857 795.315C920.109 791.209 924.648 789.149 930.476 789.149V789.149ZM893.737 849.584H882.206V806.104C877.988 810.056 873.028 812.97 867.31 814.848V804.381C870.31 803.399 873.587 801.535 877.119 798.789C880.65 796.029 883.074 792.821 884.377 789.149H893.737V849.584V849.584ZM836.96 798.719C835.572 798.719 834.328 799.169 833.233 800.051C832.14 800.947 831.286 802.545 830.683 804.843C829.898 807.827 829.492 812.843 829.492 819.906C829.492 826.968 829.857 831.816 830.557 834.451C831.272 837.099 832.168 838.85 833.247 839.734C834.341 840.601 835.572 841.05 836.96 841.05C838.362 841.05 839.609 840.6 840.702 839.705C841.794 838.823 842.648 837.225 843.252 834.926C844.037 831.97 844.444 826.968 844.444 819.906C844.444 812.843 844.08 807.996 843.377 805.347C842.664 802.713 841.767 800.947 840.688 800.051C839.594 799.168 838.362 798.719 836.96 798.719V798.719ZM836.96 789.149C842.804 789.149 847.357 791.237 850.637 795.398C854.546 800.317 856.508 808.486 856.508 819.906C856.508 831.284 854.531 839.467 850.594 844.456C847.344 848.56 842.804 850.607 836.96 850.607C831.117 850.607 826.395 848.365 822.808 843.853C819.221 839.356 817.427 831.325 817.427 819.78C817.427 808.444 819.403 800.288 823.341 795.315C826.592 791.209 831.131 789.149 836.96 789.149H836.96ZM800.222 849.584H788.69V806.104C784.472 810.056 779.511 812.97 773.794 814.848V804.381C776.794 803.399 780.072 801.535 783.603 798.789C787.134 796.029 789.558 792.821 790.862 789.149H800.222V849.584V849.584ZM743.444 798.719C742.057 798.719 740.81 799.169 739.718 800.051C738.624 800.947 737.77 802.545 737.168 804.843C736.382 807.827 735.977 812.843 735.977 819.906C735.977 826.968 736.341 831.816 737.041 834.451C737.757 837.099 738.652 838.85 739.732 839.734C740.824 840.601 742.057 841.05 743.444 841.05C744.846 841.05 746.093 840.6 747.186 839.705C748.278 838.823 749.132 837.225 749.737 834.926C750.52 831.97 750.927 826.968 750.927 819.906C750.927 812.843 750.563 807.996 749.862 805.347C749.149 802.713 748.251 800.947 747.172 800.051C746.079 799.168 744.846 798.719 743.444 798.719V798.719ZM743.444 789.149C749.288 789.149 753.841 791.237 757.121 795.398C761.029 800.317 762.992 808.486 762.992 819.906C762.992 831.284 761.015 839.467 757.078 844.456C753.828 848.56 749.288 850.607 743.444 850.607C737.601 850.607 732.879 848.365 729.292 843.853C725.705 839.356 723.911 831.325 723.911 819.78C723.911 808.444 725.888 800.288 729.825 795.315C733.076 791.209 737.615 789.149 743.444 789.149V789.149ZM1304.54 894.52C1303.15 894.52 1301.91 894.969 1300.81 895.853C1299.72 896.749 1298.87 898.347 1298.26 900.644C1297.48 903.629 1297.07 908.645 1297.07 915.707C1297.07 922.77 1297.44 927.617 1298.14 930.252C1298.85 932.9 1299.75 934.653 1300.83 935.535C1301.92 936.403 1303.15 936.852 1304.54 936.852C1305.94 936.852 1307.19 936.403 1308.28 935.507C1309.38 934.623 1310.23 933.027 1310.83 930.728C1312.45 924.634 1312.56 907.214 1310.96 901.149C1310.24 898.515 1309.35 896.749 1308.27 895.852C1307.18 894.969 1305.94 894.52 1304.54 894.52V894.52ZM1304.54 884.951C1310.38 884.951 1314.94 887.039 1318.22 891.201C1322.13 896.118 1324.09 904.288 1324.09 915.707C1324.09 927.084 1322.11 935.268 1318.17 940.256C1314.92 944.362 1310.38 946.408 1304.54 946.408C1298.7 946.408 1293.97 944.167 1290.39 939.655C1286.8 935.157 1285.01 927.128 1285.01 915.582C1285.01 904.245 1286.98 896.09 1290.92 891.116C1294.17 887.01 1298.71 884.951 1304.54 884.951L1304.54 884.951ZM1267.8 945.386H1256.27V901.906C1252.05 905.856 1247.09 908.771 1241.37 910.648V900.181C1244.37 899.201 1247.65 897.337 1251.18 894.591C1254.72 891.831 1257.14 888.622 1258.44 884.951H1267.8V945.386V945.386ZM1211.03 894.52C1209.64 894.52 1208.39 894.969 1207.3 895.853C1206.2 896.749 1205.35 898.347 1204.75 900.644C1203.96 903.629 1203.56 908.645 1203.56 915.707C1203.56 922.77 1203.92 927.617 1204.62 930.252C1205.34 932.9 1206.23 934.653 1207.31 935.535C1208.41 936.403 1209.64 936.852 1211.03 936.852C1212.43 936.852 1213.67 936.403 1214.77 935.507C1215.86 934.623 1216.71 933.027 1217.32 930.728C1218.1 927.772 1218.51 922.77 1218.51 915.707C1218.51 908.645 1218.14 903.798 1217.44 901.149C1216.73 898.515 1215.83 896.749 1214.75 895.852C1213.66 894.969 1212.43 894.52 1211.03 894.52V894.52ZM1211.03 884.951C1216.87 884.951 1221.42 887.039 1224.7 891.201C1228.61 896.118 1230.57 904.288 1230.57 915.707C1230.57 927.084 1228.6 935.268 1224.66 940.256C1221.41 944.362 1216.87 946.408 1211.02 946.408C1205.18 946.408 1200.46 944.167 1196.87 939.655C1193.29 935.157 1191.49 927.128 1191.49 915.582C1191.49 904.245 1193.47 896.09 1197.41 891.116C1200.66 887.01 1205.2 884.951 1211.02 884.951L1211.03 884.951ZM1174.29 945.386H1162.75V901.906C1158.54 905.856 1153.57 908.771 1147.86 910.648V900.181C1150.86 899.201 1154.14 897.337 1157.67 894.591C1161.2 891.831 1163.62 888.622 1164.93 884.951H1174.29V945.386H1174.29ZM1117.51 894.52C1116.12 894.52 1114.87 894.969 1113.78 895.853C1112.69 896.749 1111.83 898.347 1111.23 900.644C1110.45 903.629 1110.04 908.645 1110.04 915.707C1110.04 922.77 1110.4 927.617 1111.1 930.252C1111.82 932.9 1112.72 934.653 1113.8 935.535C1114.89 936.403 1116.12 936.852 1117.51 936.852C1118.91 936.852 1120.16 936.403 1121.25 935.507C1122.34 934.623 1123.2 933.027 1123.8 930.728C1124.58 927.772 1124.99 922.77 1124.99 915.707C1124.99 908.645 1124.63 903.798 1123.93 901.149C1123.21 898.515 1122.31 896.749 1121.24 895.852C1120.14 894.969 1118.91 894.52 1117.51 894.52V894.52ZM1117.51 884.951C1123.35 884.951 1127.91 887.039 1131.18 891.201C1135.09 896.118 1137.06 904.288 1137.06 915.707C1137.06 927.084 1135.08 935.268 1131.14 940.256C1127.89 944.362 1123.35 946.408 1117.51 946.408C1111.67 946.408 1106.94 944.167 1103.36 939.655C1099.77 935.157 1097.98 927.128 1097.98 915.582C1097.98 904.245 1099.95 896.09 1103.89 891.116C1107.14 887.01 1111.68 884.951 1117.51 884.951V884.951ZM1080.77 945.386H1069.24V901.906C1065.02 905.856 1060.06 908.771 1054.34 910.648V900.181C1057.34 899.201 1060.62 897.337 1064.15 894.591C1067.68 891.831 1070.11 888.622 1071.41 884.951H1080.77V945.386V945.386ZM1023.99 894.52C1022.6 894.52 1021.36 894.969 1020.27 895.853C1019.17 896.749 1018.32 898.347 1017.72 900.644C1016.93 903.629 1016.52 908.645 1016.52 915.707C1016.52 922.77 1016.89 927.617 1017.59 930.252C1018.3 932.9 1019.2 934.653 1020.28 935.535C1021.37 936.403 1022.6 936.852 1023.99 936.852C1025.39 936.852 1026.64 936.403 1027.73 935.507C1028.83 934.623 1029.68 933.027 1030.28 930.728C1031.07 927.772 1031.48 922.77 1031.48 915.707C1031.48 908.645 1031.11 903.798 1030.41 901.149C1029.69 898.515 1028.8 896.749 1027.72 895.852C1026.63 894.969 1025.39 894.52 1023.99 894.52V894.52ZM1023.99 884.951C1029.84 884.951 1034.39 887.039 1037.67 891.201C1041.58 896.118 1043.54 904.288 1043.54 915.707C1043.54 927.084 1041.56 935.268 1037.63 940.256C1034.38 944.362 1029.84 946.408 1023.99 946.408C1018.15 946.408 1013.43 944.167 1009.84 939.655C1006.25 935.157 1004.46 927.128 1004.46 915.582C1004.46 904.245 1006.44 896.09 1010.37 891.116C1013.62 887.01 1018.16 884.951 1023.99 884.951L1023.99 884.951ZM987.254 945.386H975.721V901.906C971.503 905.856 966.544 908.771 960.826 910.648V900.181C963.825 899.201 967.105 897.337 970.634 894.591C974.167 891.831 976.59 888.622 977.893 884.951H987.254V945.386H987.254ZM930.476 894.52C929.09 894.52 927.843 894.969 926.749 895.853C925.656 896.749 924.802 898.347 924.2 900.644C923.415 903.629 923.008 908.645 923.008 915.707C923.008 922.77 923.373 927.617 924.072 930.252C924.788 932.9 925.686 934.653 926.763 935.535C927.857 936.403 929.09 936.852 930.476 936.852C931.878 936.852 933.126 936.403 934.217 935.507C935.311 934.623 936.166 933.027 936.769 930.728C937.552 927.772 937.96 922.77 937.96 915.707C937.96 908.645 937.595 903.798 936.894 901.149C936.18 898.515 935.284 896.749 934.204 895.852C933.11 894.969 931.878 894.52 930.476 894.52V894.52ZM930.476 884.951C936.319 884.951 940.875 887.039 944.152 891.201C948.062 896.118 950.024 904.288 950.024 915.707C950.024 927.084 948.048 935.268 944.111 940.256C940.861 944.362 936.319 946.408 930.476 946.408C924.633 946.408 919.911 944.167 916.326 939.655C912.737 935.157 910.943 927.128 910.943 915.582C910.943 904.245 912.919 896.09 916.857 891.116C920.109 887.01 924.648 884.951 930.476 884.951V884.951ZM893.737 945.386H882.206V901.906C877.988 905.856 873.028 908.771 867.31 910.648V900.181C870.31 899.201 873.587 897.337 877.119 894.591C880.65 891.831 883.074 888.622 884.377 884.951H893.737V945.386V945.386ZM836.96 894.52C835.572 894.52 834.328 894.969 833.233 895.853C832.14 896.749 831.286 898.347 830.683 900.644C829.898 903.629 829.492 908.645 829.492 915.707C829.492 922.77 829.857 927.617 830.557 930.252C831.272 932.9 832.168 934.653 833.247 935.535C834.341 936.403 835.572 936.852 836.96 936.852C838.362 936.852 839.609 936.403 840.702 935.507C841.794 934.623 842.648 933.027 843.252 930.728C844.037 927.772 844.444 922.77 844.444 915.707C844.444 908.645 844.08 903.798 843.377 901.149C842.664 898.515 841.767 896.749 840.688 895.852C839.594 894.969 838.362 894.52 836.96 894.52V894.52ZM836.96 884.951C842.804 884.951 847.357 887.039 850.637 891.201C854.546 896.118 856.508 904.288 856.508 915.707C856.508 927.084 854.531 935.268 850.594 940.256C847.344 944.362 842.804 946.408 836.96 946.408C831.117 946.408 826.395 944.167 822.808 939.655C819.221 935.157 817.427 927.128 817.427 915.582C817.427 904.245 819.403 896.09 823.341 891.116C826.592 887.01 831.131 884.951 836.96 884.951L836.96 884.951ZM800.222 945.386H788.69V901.906C784.472 905.856 779.511 908.771 773.794 910.648V900.181C776.794 899.201 780.072 897.337 783.603 894.591C787.134 891.831 789.558 888.622 790.862 884.951H800.222V945.386V945.386ZM743.444 894.52C742.057 894.52 740.81 894.969 739.718 895.853C738.624 896.749 737.77 898.347 737.168 900.644C736.382 903.629 735.977 908.645 735.977 915.707C735.977 922.77 736.341 927.617 737.041 930.252C737.757 932.9 738.652 934.653 739.732 935.535C740.824 936.403 742.057 936.852 743.444 936.852C744.846 936.852 746.093 936.403 747.186 935.507C748.278 934.623 749.132 933.027 749.737 930.728C750.52 927.772 750.927 922.77 750.927 915.707C750.927 908.645 750.563 903.798 749.862 901.149C749.149 898.515 748.251 896.749 747.172 895.852C746.079 894.969 744.846 894.52 743.444 894.52V894.52ZM743.444 884.951C749.288 884.951 753.841 887.039 757.121 891.201C761.029 896.118 762.992 904.288 762.992 915.707C762.992 927.084 761.015 935.268 757.078 940.256C753.828 944.362 749.288 946.408 743.444 946.408C737.601 946.408 732.879 944.167 729.292 939.655C725.705 935.157 723.911 927.128 723.911 915.582C723.911 904.245 725.888 896.09 729.825 891.116C733.076 887.01 737.615 884.951 743.444 884.951V884.951ZM1304.54 990.322C1303.15 990.322 1301.91 990.771 1300.81 991.654C1299.72 992.551 1298.87 994.149 1298.26 996.446C1297.48 999.431 1297.07 1004.45 1297.07 1011.51C1297.07 1018.57 1297.44 1023.42 1298.14 1026.05C1298.85 1028.7 1299.75 1030.45 1300.83 1031.34C1301.92 1032.2 1303.15 1032.65 1304.54 1032.65C1305.94 1032.65 1307.19 1032.2 1308.28 1031.31C1309.38 1030.43 1310.23 1028.83 1310.83 1026.53C1312.45 1020.44 1312.56 1003.02 1310.96 996.95C1310.24 994.315 1309.35 992.551 1308.27 991.654C1307.18 990.771 1305.94 990.322 1304.54 990.322V990.322ZM1304.54 980.753C1310.38 980.753 1314.94 982.84 1318.22 987.002C1322.13 991.92 1324.09 1000.09 1324.09 1011.51C1324.09 1022.89 1322.11 1031.07 1318.17 1036.06C1314.92 1040.16 1310.38 1042.21 1304.54 1042.21C1298.7 1042.21 1293.97 1039.97 1290.39 1035.46C1286.8 1030.96 1285.01 1022.93 1285.01 1011.38C1285.01 1000.05 1286.98 991.892 1290.92 986.918C1294.17 982.812 1298.71 980.753 1304.54 980.753L1304.54 980.753ZM1267.8 1041.19H1256.27V997.707C1252.05 1001.66 1247.09 1004.57 1241.37 1006.45V995.984C1244.37 995.003 1247.65 993.139 1251.18 990.393C1254.72 987.631 1257.14 984.423 1258.44 980.753H1267.8V1041.19V1041.19ZM1211.03 990.322C1209.64 990.322 1208.39 990.771 1207.3 991.654C1206.2 992.551 1205.35 994.149 1204.75 996.446C1203.96 999.431 1203.56 1004.45 1203.56 1011.51C1203.56 1018.57 1203.92 1023.42 1204.62 1026.05C1205.34 1028.7 1206.23 1030.45 1207.31 1031.34C1208.41 1032.2 1209.64 1032.65 1211.03 1032.65C1212.43 1032.65 1213.67 1032.2 1214.77 1031.31C1215.86 1030.43 1216.71 1028.83 1217.32 1026.53C1218.1 1023.57 1218.51 1018.57 1218.51 1011.51C1218.51 1004.45 1218.14 999.598 1217.44 996.95C1216.73 994.315 1215.83 992.551 1214.75 991.654C1213.66 990.771 1212.43 990.322 1211.03 990.322V990.322ZM1211.03 980.753C1216.87 980.753 1221.42 982.84 1224.7 987.002C1228.61 991.92 1230.57 1000.09 1230.57 1011.51C1230.57 1022.89 1228.6 1031.07 1224.66 1036.06C1221.41 1040.16 1216.87 1042.21 1211.02 1042.21C1205.18 1042.21 1200.46 1039.97 1196.87 1035.46C1193.29 1030.96 1191.49 1022.93 1191.49 1011.38C1191.49 1000.05 1193.47 991.892 1197.41 986.918C1200.66 982.812 1205.2 980.753 1211.02 980.753L1211.03 980.753ZM1174.29 1041.19H1162.75V997.707C1158.54 1001.66 1153.57 1004.57 1147.86 1006.45V995.984C1150.86 995.003 1154.14 993.139 1157.67 990.393C1161.2 987.631 1163.62 984.423 1164.93 980.753H1174.29V1041.19H1174.29ZM1117.51 990.322C1116.12 990.322 1114.87 990.771 1113.78 991.654C1112.69 992.551 1111.83 994.149 1111.23 996.446C1110.45 999.431 1110.04 1004.45 1110.04 1011.51C1110.04 1018.57 1110.4 1023.42 1111.1 1026.05C1111.82 1028.7 1112.72 1030.45 1113.8 1031.34C1114.89 1032.2 1116.12 1032.65 1117.51 1032.65C1118.91 1032.65 1120.16 1032.2 1121.25 1031.31C1122.34 1030.43 1123.2 1028.83 1123.8 1026.53C1124.58 1023.57 1124.99 1018.57 1124.99 1011.51C1124.99 1004.45 1124.63 999.598 1123.93 996.95C1123.21 994.315 1122.31 992.551 1121.24 991.654C1120.14 990.771 1118.91 990.322 1117.51 990.322V990.322ZM1117.51 980.753C1123.35 980.753 1127.91 982.84 1131.18 987.002C1135.09 991.92 1137.06 1000.09 1137.06 1011.51C1137.06 1022.89 1135.08 1031.07 1131.14 1036.06C1127.89 1040.16 1123.35 1042.21 1117.51 1042.21C1111.67 1042.21 1106.94 1039.97 1103.36 1035.46C1099.77 1030.96 1097.98 1022.93 1097.98 1011.38C1097.98 1000.05 1099.95 991.892 1103.89 986.918C1107.14 982.812 1111.68 980.753 1117.51 980.753V980.753ZM1080.77 1041.19H1069.24V997.707C1065.02 1001.66 1060.06 1004.57 1054.34 1006.45V995.984C1057.34 995.003 1060.62 993.139 1064.15 990.393C1067.68 987.631 1070.11 984.423 1071.41 980.753H1080.77V1041.19V1041.19ZM1023.99 990.322C1022.6 990.322 1021.36 990.771 1020.27 991.654C1019.17 992.551 1018.32 994.149 1017.72 996.446C1016.93 999.431 1016.52 1004.45 1016.52 1011.51C1016.52 1018.57 1016.89 1023.42 1017.59 1026.05C1018.3 1028.7 1019.2 1030.45 1020.28 1031.34C1021.37 1032.2 1022.6 1032.65 1023.99 1032.65C1025.39 1032.65 1026.64 1032.2 1027.73 1031.31C1028.83 1030.43 1029.68 1028.83 1030.28 1026.53C1031.07 1023.57 1031.48 1018.57 1031.48 1011.51C1031.48 1004.45 1031.11 999.598 1030.41 996.95C1029.69 994.315 1028.8 992.551 1027.72 991.654C1026.63 990.771 1025.39 990.322 1023.99 990.322V990.322ZM1023.99 980.753C1029.84 980.753 1034.39 982.84 1037.67 987.002C1041.58 991.92 1043.54 1000.09 1043.54 1011.51C1043.54 1022.89 1041.56 1031.07 1037.63 1036.06C1034.38 1040.16 1029.84 1042.21 1023.99 1042.21C1018.15 1042.21 1013.43 1039.97 1009.84 1035.46C1006.25 1030.96 1004.46 1022.93 1004.46 1011.38C1004.46 1000.05 1006.44 991.892 1010.37 986.918C1013.62 982.812 1018.16 980.753 1023.99 980.753L1023.99 980.753ZM987.254 1041.19H975.721V997.707C971.503 1001.66 966.544 1004.57 960.826 1006.45V995.984C963.825 995.003 967.105 993.139 970.634 990.393C974.167 987.631 976.59 984.423 977.893 980.753H987.254V1041.19H987.254ZM930.476 990.322C929.09 990.322 927.843 990.771 926.749 991.654C925.656 992.551 924.802 994.149 924.2 996.446C923.415 999.431 923.008 1004.45 923.008 1011.51C923.008 1018.57 923.373 1023.42 924.072 1026.05C924.788 1028.7 925.686 1030.45 926.763 1031.34C927.857 1032.2 929.09 1032.65 930.476 1032.65C931.878 1032.65 933.126 1032.2 934.217 1031.31C935.311 1030.43 936.166 1028.83 936.769 1026.53C937.552 1023.57 937.96 1018.57 937.96 1011.51C937.96 1004.45 937.595 999.598 936.894 996.95C936.18 994.315 935.284 992.551 934.204 991.654C933.11 990.771 931.878 990.322 930.476 990.322V990.322ZM930.476 980.753C936.319 980.753 940.875 982.84 944.152 987.002C948.062 991.92 950.024 1000.09 950.024 1011.51C950.024 1022.89 948.048 1031.07 944.111 1036.06C940.861 1040.16 936.319 1042.21 930.476 1042.21C924.633 1042.21 919.911 1039.97 916.326 1035.46C912.737 1030.96 910.943 1022.93 910.943 1011.38C910.943 1000.05 912.919 991.892 916.857 986.918C920.109 982.812 924.648 980.753 930.476 980.753V980.753ZM893.737 1041.19H882.206V997.707C877.988 1001.66 873.028 1004.57 867.31 1006.45V995.984C870.31 995.003 873.587 993.139 877.119 990.393C880.65 987.631 883.074 984.423 884.377 980.753H893.737V1041.19V1041.19ZM836.96 990.322C835.572 990.322 834.328 990.771 833.233 991.654C832.14 992.551 831.286 994.149 830.683 996.446C829.898 999.431 829.492 1004.45 829.492 1011.51C829.492 1018.57 829.857 1023.42 830.557 1026.05C831.272 1028.7 832.168 1030.45 833.247 1031.34C834.341 1032.2 835.572 1032.65 836.96 1032.65C838.362 1032.65 839.609 1032.2 840.702 1031.31C841.794 1030.43 842.648 1028.83 843.252 1026.53C844.037 1023.57 844.444 1018.57 844.444 1011.51C844.444 1004.45 844.08 999.598 843.377 996.95C842.664 994.315 841.767 992.551 840.688 991.654C839.594 990.771 838.362 990.322 836.96 990.322V990.322ZM836.96 980.753C842.804 980.753 847.357 982.84 850.637 987.002C854.546 991.92 856.508 1000.09 856.508 1011.51C856.508 1022.89 854.531 1031.07 850.594 1036.06C847.344 1040.16 842.804 1042.21 836.96 1042.21C831.117 1042.21 826.395 1039.97 822.808 1035.46C819.221 1030.96 817.427 1022.93 817.427 1011.38C817.427 1000.05 819.403 991.892 823.341 986.918C826.592 982.812 831.131 980.753 836.96 980.753L836.96 980.753ZM800.222 1041.19H788.69V997.707C784.472 1001.66 779.511 1004.57 773.794 1006.45V995.984C776.794 995.003 780.072 993.139 783.603 990.393C787.134 987.631 789.558 984.423 790.862 980.753H800.222V1041.19V1041.19ZM743.444 990.322C742.057 990.322 740.81 990.771 739.718 991.654C738.624 992.551 737.77 994.149 737.168 996.446C736.382 999.431 735.977 1004.45 735.977 1011.51C735.977 1018.57 736.341 1023.42 737.041 1026.05C737.757 1028.7 738.652 1030.45 739.732 1031.34C740.824 1032.2 742.057 1032.65 743.444 1032.65C744.846 1032.65 746.093 1032.2 747.186 1031.31C748.278 1030.43 749.132 1028.83 749.737 1026.53C750.52 1023.57 750.927 1018.57 750.927 1011.51C750.927 1004.45 750.563 999.598 749.862 996.95C749.149 994.315 748.251 992.551 747.172 991.654C746.079 990.771 744.846 990.322 743.444 990.322V990.322ZM743.444 980.753C749.288 980.753 753.841 982.84 757.121 987.002C761.029 991.92 762.992 1000.09 762.992 1011.51C762.992 1022.89 761.015 1031.07 757.078 1036.06C753.828 1040.16 749.288 1042.21 743.444 1042.21C737.601 1042.21 732.879 1039.97 729.292 1035.46C725.705 1030.96 723.911 1022.93 723.911 1011.38C723.911 1000.05 725.888 991.892 729.825 986.918C733.076 982.812 737.615 980.753 743.444 980.753V980.753ZM743.444 693.349C749.288 693.349 753.841 695.436 757.121 699.598C761.029 704.516 762.992 712.684 762.992 724.105C762.992 735.482 761.015 743.665 757.078 748.654C753.828 752.759 749.288 754.805 743.444 754.805C737.601 754.805 732.879 752.563 729.292 748.051C725.705 743.554 723.911 735.525 723.911 723.978C723.911 712.642 725.888 704.487 729.825 699.513C733.076 695.407 737.615 693.349 743.444 693.349V693.349Z" fill="#424242"/>
</svg>
