<svg width="100" height="100" viewBox="0 0 100 100" fill="none" xmlns="http://www.w3.org/2000/svg">
<path d="M49.2707 51.8706C47.1915 48.5186 45.6832 45.7394 43.5936 40.5061C40.0603 31.6665 65.0832 23.679 54.9373 8.33105C59.3353 18.9331 39.1519 25.4873 37.2769 34.3165C35.5623 42.4373 49.2603 51.8706 49.2707 51.8706Z" fill="#F44336"/>
<path d="M49.7457 35.979C49.3457 41.2206 54.3895 44.0144 54.5353 47.8436C54.652 50.9602 51.5207 53.5581 51.5207 53.5581C51.5207 53.5581 57.2041 52.4415 58.977 47.6873C60.9457 42.4081 55.1561 38.7936 55.752 34.5665C56.3082 30.529 68.3166 23.0186 68.3166 23.0186C68.3166 23.0186 50.6478 24.1894 49.7457 35.979Z" fill="#F44336"/>
<path d="M66.8414 52.1981C70.4956 51.3773 73.5769 53.7043 73.5769 56.3856C73.5769 62.4293 65.1998 68.1418 65.1998 68.1418C65.1998 68.1418 78.1685 66.596 78.1685 56.6731C78.1685 50.1106 71.7998 48.471 66.8414 52.1981ZM60.6852 57.0731C60.6852 57.0731 64.7289 54.1918 65.806 53.1106C55.8831 55.2168 33.2269 55.5002 33.2269 53.671C33.2269 51.9856 40.5331 50.2585 40.5331 50.2585C40.5331 50.2585 24.3394 50.0252 24.3394 54.8023C24.3394 59.7814 45.5373 60.1377 60.6852 57.0731Z" fill="#1565C0"/>
<path d="M58.1978 61.6063C48.8041 64.7293 31.502 63.7313 36.627 59.5376C34.1312 59.5376 30.4312 61.5438 30.4312 63.473C30.4312 67.3418 49.1437 70.3293 62.9937 64.6647L58.1978 61.6063Z" fill="#1565C0"/>
<path d="M38.929 68.2065C35.5207 68.2065 33.3145 70.4024 33.3145 72.0024C33.3145 76.9836 53.6478 77.4857 61.704 72.4295L56.5832 69.0295C50.5645 71.6753 35.4457 72.0399 38.929 68.2065Z" fill="#1565C0"/>
<path d="M75.5854 76.317C75.5854 74.367 73.3875 73.4482 72.6 73.0086C77.2417 84.2024 26.1062 83.3336 26.1062 76.7253C26.1062 75.2232 29.8708 73.7524 33.35 74.4482L30.3917 72.7003C23.4583 71.6128 18.75 74.6607 18.75 77.119C18.75 88.5836 75.5854 88.0315 75.5854 76.317Z" fill="#1565C0"/>
<path d="M81.2501 80.4253C72.6126 88.9565 50.7105 92.0649 28.6855 86.794C50.7105 96.1753 81.146 90.892 81.2501 80.4253Z" fill="#1565C0"/>
</svg>
