<svg width="100" height="100" viewBox="0 0 100 100" fill="none" xmlns="http://www.w3.org/2000/svg">
<path d="M50.098 10.4167C46.8584 10.4271 44.6126 10.7125 41.898 11.1812C33.8813 12.5771 32.4209 15.5083 32.4209 20.9104V29.1667H51.1709V33.3333H31.7084H22.6459C17.1542 33.3333 12.348 35.9208 10.8251 42.1229C9.10423 49.2417 9.02714 53.7 10.8251 61.1333C12.1896 66.6771 15.1959 70.8333 20.6896 70.8333H28.2563V60.2C28.2563 54.0208 33.8521 47.9167 40.2646 47.9167H55.3396C60.5959 47.9167 65.7563 44.0375 65.7563 38.7979V20.9104C65.7563 15.8292 62.0917 12.0292 56.9688 11.1771C57.0959 11.1646 53.3105 10.4042 50.098 10.4167ZM39.7146 18.75C41.4251 18.75 42.8396 20.1604 42.8396 21.8792C42.8396 23.6146 41.4251 25 39.7146 25C37.9709 25 36.5896 23.6167 36.5896 21.8792C36.5896 20.1667 37.9709 18.75 39.7146 18.75Z" fill="#0277BD"/>
<path d="M48.0792 89.5832C51.3188 89.5728 53.5646 89.2873 56.2792 88.8186C64.2959 87.4228 65.7563 84.4915 65.7563 79.0894V70.8332H47.0063V66.6665H66.4709H75.5334C81.0251 66.6665 85.8313 64.079 87.3542 57.8769C89.0751 50.7582 89.1522 46.2998 87.3542 38.8665C85.9876 33.3228 82.9813 29.1665 77.4876 29.1665H69.9209V39.7998C69.9209 45.979 64.3251 52.0832 57.9126 52.0832H42.8376C37.5813 52.0832 32.4209 55.9623 32.4209 61.2019V79.0894C32.4209 84.1707 36.0855 87.9707 41.2084 88.8228C41.0813 88.8353 44.8667 89.5957 48.0792 89.5832ZM58.4646 81.2498C56.7542 81.2498 55.3396 79.8394 55.3396 78.1207C55.3396 76.3853 56.7542 74.9998 58.4646 74.9998C60.2084 74.9998 61.5896 76.3832 61.5896 78.1207C61.5896 79.8332 60.2063 81.2498 58.4646 81.2498Z" fill="#FFC107"/>
</svg>
