<svg width="100" height="100" viewBox="0 0 100 100" fill="none" xmlns="http://www.w3.org/2000/svg">
<path d="M91.8396 62.0623C91.4583 60.3352 89.8916 58.3206 86.7312 58.3206C86.0854 58.3206 85.3791 58.4019 84.575 58.5686C83.1 58.8727 81.8437 59.0206 80.7375 59.0706C89.3479 44.404 94.9375 24.0311 89.4021 16.9581C82.1083 7.63939 72.2896 6.24772 67.0875 6.24772L66.5979 6.2498C64.6625 6.28105 62.6541 6.51855 60.6333 6.95605L53.1687 8.56855C52.1521 8.44147 51.1166 8.35189 50.0375 8.33314H49.975H49.9416L49.625 8.33105C46.3062 8.33105 43.2791 9.03522 40.5812 10.3581L37.975 9.33105C34.3916 7.91855 29 6.2373 23.6666 6.2373C23.3666 6.2373 23.0687 6.24355 22.7687 6.25397C17.5146 6.44355 13.0021 8.4373 9.71664 12.0186C5.61664 16.4894 3.74997 23.029 4.17289 31.4581C4.19372 31.8936 9.29372 74.9998 23.75 74.9998H23.8021L23.9354 74.9977C25.8125 74.9519 27.6021 74.1977 29.275 72.754C30.5521 73.7123 32.2041 74.279 33.7437 74.504C34.7604 74.7436 36.5896 75.0831 38.7812 75.0831C41.4562 75.0831 43.8687 74.5352 45.9479 73.5456C45.9458 75.379 45.9354 77.6998 45.9146 80.6665L45.9125 80.8227L45.9229 80.979C46.125 83.9352 46.6354 86.5998 47.4041 88.6894C49.5937 94.6456 53.375 97.9269 58.0521 97.9269C58.2458 97.9269 58.4437 97.9206 58.6437 97.9081C62.4896 97.6706 66.3875 95.5102 69.0687 92.1331C71.9708 88.4769 72.6416 84.6186 72.9 81.6623L72.9166 81.4811V81.2977V72.7998L73.1312 72.8206L74.0396 72.8998L74.1271 72.9081L74.2146 72.9123C74.4729 72.9248 74.7396 72.929 75.0083 72.929C78.1479 72.929 82.0125 72.1144 84.625 70.8998C87.1229 69.7415 92.8312 66.5581 91.8396 62.0623Z" fill="white"/>
<path d="M68.7501 70.8331C68.7501 70.406 68.7751 70.0498 68.7876 69.656C68.7667 69.1331 68.7501 68.7498 68.7501 68.7498C68.7501 68.7498 68.7751 68.731 68.8167 68.7039C69.1272 63.1352 70.6626 60.9893 72.3063 59.7664C72.0772 59.4477 71.8126 59.1039 71.5647 58.7768C70.8709 57.8664 70.0063 56.7373 69.0813 55.2893L68.9105 54.9602C68.7709 54.6185 68.4334 54.0289 68.0042 53.2539C65.5396 48.7956 60.4105 39.5206 63.9209 33.6623C65.4584 31.0956 68.3417 29.6164 72.5063 29.2519C70.8042 24.4123 64.4272 12.7394 49.9688 12.4998C49.9647 12.4998 49.9605 12.4998 49.9563 12.4998C37.3709 12.2956 33.2355 23.7331 31.8896 30.5664C33.7438 29.781 35.8605 29.3039 37.798 29.3039C37.8271 29.3039 37.8584 29.3039 37.8876 29.3039C42.6584 29.3393 45.9397 31.8852 46.8938 36.2914C47.5917 39.5248 47.9271 42.3539 47.9188 44.9435C47.898 50.6081 46.7563 53.5873 45.748 56.2164L45.4271 57.0664C45.1688 57.7623 44.8959 58.4102 44.6376 59.0185C44.3751 59.6394 44.1438 60.1914 43.9751 60.6894C44.9834 60.9185 45.7751 61.2414 46.3188 61.481L46.6334 61.6185C46.7313 61.6602 46.8292 61.7081 46.9188 61.7623C48.6855 62.8373 49.7855 64.4893 50.0209 66.4143C50.148 67.4519 50.1272 74.5248 50.0834 80.6956C50.2647 83.3727 50.7188 85.6206 51.3188 87.2498C52.1709 89.5706 54.3001 94.0018 58.3897 93.7477C61.2438 93.5706 63.9876 91.8331 65.8084 89.5414C67.7626 87.081 68.4834 84.3602 68.7542 81.2956V70.8331H68.7501Z" fill="#0277BD"/>
<path d="M31.4877 60.2438C28.1272 56.7376 26.4897 52.0209 27.1043 47.6272C27.6981 43.3876 27.3627 39.2376 27.1814 37.0063C27.121 36.2626 27.0814 35.7084 27.0835 35.4022C27.0835 35.3855 27.0877 35.3709 27.0897 35.3543C27.0897 35.3459 27.0856 35.3397 27.0856 35.3313C27.3377 29.0376 29.7647 19.1084 36.446 13.2063C33.1918 11.9251 27.8918 10.2355 22.9168 10.4168C15.121 10.7001 7.57516 16.0918 8.33349 31.2501C8.61891 36.9376 15.046 71.048 23.8335 70.8334C25.0897 70.8022 26.3939 69.9959 27.7335 68.3834C29.8522 65.8355 31.9106 63.5251 33.3752 61.9168C32.7189 61.4188 32.0856 60.8688 31.4877 60.2438ZM77.1314 30.6897C77.1627 31.0105 77.1356 31.2855 77.0856 31.5397C77.1502 33.4563 76.9439 35.3168 76.7335 37.1168C76.5793 38.4418 76.421 39.8105 76.3772 41.1834C76.3335 42.5272 76.5231 43.8543 76.7231 45.2584C77.1918 48.5459 77.6793 52.2563 75.1293 56.5855C75.5981 57.2022 76.0106 57.7751 76.3397 58.3293C85.9439 42.7563 89.8147 24.2438 86.121 19.5251C80.5314 12.3834 72.7939 10.3168 66.6647 10.4168C64.746 10.448 63.0022 10.7063 61.5127 11.0293C72.0877 16.1543 76.7981 27.1376 77.1314 30.6897ZM85.4168 62.648C79.8647 63.7938 77.1939 63.1834 75.8981 62.3855C75.6897 62.5355 75.4814 62.6626 75.2877 62.7813C74.5127 63.2501 73.2856 63.9959 72.9856 68.5772C73.1585 68.6105 73.3106 68.6293 73.4981 68.6688L74.4043 68.7501C77.1543 68.8751 80.7564 68.1043 82.8689 67.123C87.421 65.0105 89.9022 61.723 85.4168 62.648ZM45.8814 66.9147C45.8043 66.2938 45.4689 65.7918 44.8564 65.3897L44.6314 65.2918C43.8793 64.9605 43.0272 64.5834 41.6668 64.5834H41.6585C41.3939 64.6043 41.1314 64.623 40.8668 64.623C40.7585 64.623 40.6522 64.6084 40.5439 64.6043C39.5564 65.3647 38.1522 65.9522 34.6772 66.6668C28.4689 68.248 32.1335 70.1147 34.5147 70.4043C36.8189 70.9813 42.296 71.6834 45.9335 68.7188C45.9231 67.7855 45.9064 67.1438 45.8814 66.9147Z" fill="#0277BD"/>
<path d="M43.0855 38.5437C42.4772 39.1729 41.5168 39.7229 40.4564 39.5521C38.7314 39.2729 37.4085 37.1917 37.5043 36.4104C37.596 35.6312 39.0689 35.225 40.7918 35.5042C41.3897 35.6021 41.9335 35.7708 42.3918 35.9792C41.7251 34.5458 40.5189 33.7187 38.6793 33.5167C35.4189 33.1542 31.9585 34.8583 31.2626 35.8021C31.2772 36.0312 31.3043 36.325 31.3314 36.6708C31.5251 39.0604 31.8835 43.5125 31.2272 48.2062C30.7939 51.3 32.046 54.8083 34.4918 57.3625C36.0689 59.0083 37.9105 60.05 39.7272 60.3583C39.9585 59.3625 40.371 58.3917 40.796 57.3896C41.0314 56.8375 41.2814 56.25 41.5168 55.6146L41.8543 54.725C42.7772 52.3187 43.7293 49.8292 43.748 44.9271C43.7564 43.0417 43.5251 40.8896 43.0855 38.5437ZM72.598 45.8479C72.3814 44.3292 72.1585 42.7563 72.2126 41.05C72.2605 39.5042 72.4314 38.0458 72.596 36.6354C72.7251 35.525 72.8251 34.4583 72.8835 33.4062C70.198 33.6292 68.4147 34.4042 67.5689 35.7146C67.9189 35.5958 68.3147 35.5021 68.7522 35.4458C70.6105 35.2042 71.9668 35.7396 72.123 36.7729C72.2376 37.5292 71.596 38.2417 71.3147 38.5146C70.7376 39.075 70.0105 39.4354 69.271 39.5313C69.1376 39.5479 69.0022 39.5562 68.871 39.5562C68.1355 39.5562 67.4335 39.3042 66.8939 38.9313C67.1272 43.0417 70.1585 48.5396 71.6501 51.2375C71.9689 51.8146 72.2147 52.275 72.4189 52.6708C73.2376 50.3396 72.9355 48.2146 72.598 45.8479Z" fill="#0277BD"/>
</svg>
