<svg width="57" height="57" viewBox="0 0 57 57" fill="none" xmlns="http://www.w3.org/2000/svg">
<path d="M0 10C0 4.47715 4.47715 0 10 0H47C52.5228 0 57 4.47715 57 10V47C57 52.5228 52.5228 57 47 57H10C4.47715 57 0 52.5228 0 47V10Z" fill="white"/>
<path d="M17.052 42V16.8H30.516C33.996 16.8 36.564 17.424 38.22 18.672C39.876 19.896 40.704 21.468 40.704 23.388C40.704 24.66 40.344 25.8 39.624 26.808C38.928 27.792 37.908 28.572 36.564 29.148C35.22 29.724 33.564 30.012 31.596 30.012L32.316 28.068C34.284 28.068 35.976 28.344 37.392 28.896C38.832 29.448 39.936 30.252 40.704 31.308C41.496 32.34 41.892 33.588 41.892 35.052C41.892 37.236 40.98 38.94 39.156 40.164C37.356 41.388 34.716 42 31.236 42H17.052ZM25.404 36.06H30.516C31.452 36.06 32.148 35.892 32.604 35.556C33.084 35.22 33.324 34.728 33.324 34.08C33.324 33.432 33.084 32.94 32.604 32.604C32.148 32.268 31.452 32.1 30.516 32.1H24.828V26.484H29.364C30.324 26.484 31.02 26.328 31.452 26.016C31.908 25.68 32.136 25.212 32.136 24.612C32.136 23.988 31.908 23.52 31.452 23.208C31.02 22.896 30.324 22.74 29.364 22.74H25.404V36.06Z" fill="#1E1E21"/>
</svg>
